<?xml version="1.0" encoding="iso-8859-1"?>
<!-- Generator: Adobe Illustrator 16.0.0, SVG Export Plug-In . SVG Version: 6.00 Build 0)  -->
<!DOCTYPE svg PUBLIC "-//W3C//DTD SVG 1.1//EN" "http://www.w3.org/Graphics/SVG/1.1/DTD/svg11.dtd">
<svg version="1.1" id="Capa_1" xmlns="http://www.w3.org/2000/svg" xmlns:xlink="http://www.w3.org/1999/xlink" x="0px" y="0px"
	 width="442.76px" height="442.76px" viewBox="0 0 442.76 442.76" style="enable-background:new 0 0 442.76 442.76;"
	 xml:space="preserve">
<g>
	<path d="M237.08,31.616c-113.594,0-205.679,84.96-205.679,189.764c0,28.473,6.809,55.473,18.986,79.711L1.735,389.063
		c-2.704,4.887-2.215,10.916,1.239,15.307c2.672,3.396,6.722,5.299,10.911,5.299c1.223,0,2.457-0.162,3.674-0.498l106.505-29.232
		c32.434,19.719,71.269,31.205,113.016,31.205c113.595,0,205.681-84.959,205.681-189.764
		C442.76,116.576,350.674,31.616,237.08,31.616z M217.881,145.28c0-10.201,8.298-18.5,18.5-18.5s18.5,8.299,18.5,18.5v101
		c0,10.201-8.299,18.5-18.5,18.5s-18.5-8.299-18.5-18.5V145.28z M236.38,315.98c-11.225,0-20.356-9.132-20.356-20.356
		c0-11.227,9.133-20.359,20.356-20.359c11.227,0,20.357,9.133,20.357,20.359C256.738,306.849,247.607,315.98,236.38,315.98z"/>
</g>
<g>
</g>
<g>
</g>
<g>
</g>
<g>
</g>
<g>
</g>
<g>
</g>
<g>
</g>
<g>
</g>
<g>
</g>
<g>
</g>
<g>
</g>
<g>
</g>
<g>
</g>
<g>
</g>
<g>
</g>
</svg>
